<svg width="50" height="50" viewBox="0 0 50 50" fill="none" xmlns="http://www.w3.org/2000/svg">
<path d="M20.1587 24L24.1587 15C24.9543 15 25.7174 15.3161 26.28 15.8787C26.8426 16.4413 27.1587 17.2044 27.1587 18V22H32.8187C33.1086 21.9967 33.3958 22.0565 33.6603 22.1752C33.9248 22.2939 34.1603 22.4687 34.3505 22.6875C34.5408 22.9063 34.6812 23.1638 34.762 23.4423C34.8429 23.7207 34.8622 24.0134 34.8187 24.3L33.4387 33.3C33.3664 33.7769 33.1241 34.2116 32.7566 34.524C32.3891 34.8364 31.921 35.0055 31.4387 35H20.1587M20.1587 24V35M20.1587 24H17.1587C16.6283 24 16.1196 24.2107 15.7445 24.5858C15.3694 24.9609 15.1587 25.4696 15.1587 26V33C15.1587 33.5304 15.3694 34.0391 15.7445 34.4142C16.1196 34.7893 16.6283 35 17.1587 35H20.1587" stroke="black" stroke-opacity="0.81" stroke-width="2" stroke-linecap="round" stroke-linejoin="round"/>
</svg>
