<svg width="35" height="35" viewBox="0 0 35 35" fill="none" xmlns="http://www.w3.org/2000/svg">
<path d="M20.043 14.233C20.0916 14.4188 20.1882 14.5886 20.3232 14.7252C20.4581 14.8618 20.6267 14.9604 20.8119 15.0112L30.3044 17.6174C30.4728 17.6626 30.6496 17.6669 30.82 17.6299C30.9904 17.5929 31.1495 17.5157 31.284 17.4048C31.4186 17.2938 31.5246 17.1523 31.5933 16.992C31.662 16.8317 31.6914 16.6574 31.679 16.4834C31.4347 13.1058 29.9935 9.92608 27.6146 7.51591C25.2357 5.10574 22.0751 3.62318 18.701 3.33474C18.5265 3.3199 18.3509 3.34717 18.1892 3.41428C18.0274 3.48138 17.8841 3.58635 17.7714 3.72036C17.6688 3.84085 17.594 3.98252 17.5525 4.13524C17.5016 4.32034 17.5004 4.51558 17.5488 4.70133L20.043 14.233ZM29.2856 15.0692L22.0001 13.069L20.0905 5.7564C20.2939 5.79524 20.4943 5.85026 20.6894 5.90383C22.8269 6.49267 24.7604 7.65991 26.2771 9.27703C27.7938 10.8942 28.8348 12.8984 29.2856 15.0692ZM21.0213 31.2796C21.0483 31.2742 21.0766 31.2693 21.1043 31.2613C21.132 31.2533 21.1551 31.2469 21.1801 31.2381C23.5769 30.5961 25.7641 29.3384 27.5245 27.5898C29.2849 25.8412 30.5574 23.6626 31.2155 21.2702C31.2923 20.9904 31.2549 20.6917 31.1114 20.4396C30.9679 20.1875 30.7301 20.0027 30.4504 19.9259L18.3435 16.602L15.1446 4.55025C15.1078 4.41049 15.0437 4.27941 14.956 4.16457C14.8682 4.04974 14.7586 3.95344 14.6334 3.88123C14.5082 3.80903 14.3699 3.76235 14.2266 3.74389C14.0832 3.72544 13.9377 3.73557 13.7983 3.77371C10.7838 4.58545 8.12033 6.36668 6.21879 8.84254C4.31725 11.3184 3.28337 14.3512 3.27671 17.4731C3.27005 20.5949 4.29098 23.6321 6.18194 26.116C8.0729 28.6 10.7288 30.3926 13.7397 31.2172C16.1198 31.8738 18.6304 31.8954 21.0213 31.2796ZM28.769 21.7327C28.1558 23.3632 27.196 24.8412 25.9559 26.0647C24.7158 27.2881 23.225 28.2278 21.5863 28.8189L18.9931 19.0488L28.769 21.7327ZM5.90219 14.3205C6.41242 12.4805 7.3511 10.7876 8.6414 9.3801C9.93171 7.97264 11.537 6.89074 13.3258 6.22292L16.3857 17.7531L16.3962 17.7871L19.4717 29.374C17.4802 29.7041 15.4377 29.5278 13.5322 28.8613C11.6267 28.1948 9.91958 27.0596 8.56799 25.5602C7.21639 24.0608 6.2638 22.2454 5.79795 20.2812C5.33209 18.317 5.36794 16.2672 5.90219 14.3205Z" fill="black" fill-opacity="0.81"/>
</svg>
